# xmcd
#
# Track frame offsets:
# 150
# 13645
# 25927
# 47007
# 68685
# 79727
# 93155
# 103660
# 119350
# 134342
# 148507
# 157972
# 170840
# 185075
# 197345
# 220037
#
# Disc length: 3196 seconds
#
#
# Revision: 3
# Processed by: cddbd v1.5.1PL0 Copyright (c) Steve Scherf et al.
# Submitted via: FreeRIP 2.942 
#
DISCID=d50c7a10
DTITLE=Various Artist - Love Pops Ballad Vol. 6
DYEAR=1900
DGENRE=Pop
TTITLE0=Top of the World - Carpenters
TTITLE1=You mean everything to me - Meil Sedaka
TTITLE2=My way - Frank Sinatra
TTITLE3=Killing me softly with this song - Roberta Flack
TTITLE4=Changing partners - Patti Page's
TTITLE5=Danny boy - jim Reeves
TTITLE6=Oh Carol - Neil Sedaka
TTITLE7=Oh darling - The Beatles
TTITLE8=I don't know how to love him - Helen Reddy's
TTITLE9=Green, green, grass of home - Tom Johns
TTITLE10=Autumm leaves - Pat Boone
TTITLE11=The end of the world - Julie London
TTITLE12=Am I that easy to forget - Engelbert Hamperthink
TTITLE13=I am sorry - Brenda Lee
TTITLE14=Those were the days - Mary Hopkins
TTITLE15=When the saints go marching in - Louis Armstrong
EXTD=
EXTT0=
EXTT1=
EXTT2=
EXTT3=
EXTT4=
EXTT5=
EXTT6=
EXTT7=
EXTT8=
EXTT9=
EXTT10=
EXTT11=
EXTT12=
EXTT13=
EXTT14=
EXTT15=
PLAYORDER=
